<?xml version="1.0" encoding="UTF-8" standalone="no"?>
<!-- Created with Inkscape (http://www.inkscape.org/) -->

<svg
   xmlns:dc="http://purl.org/dc/elements/1.1/"
   xmlns:cc="http://creativecommons.org/ns#"
   xmlns:rdf="http://www.w3.org/1999/02/22-rdf-syntax-ns#"
   xmlns:svg="http://www.w3.org/2000/svg"
   xmlns="http://www.w3.org/2000/svg"
   xmlns:sodipodi="http://sodipodi.sourceforge.net/DTD/sodipodi-0.dtd"
   xmlns:inkscape="http://www.inkscape.org/namespaces/inkscape"
   width="55.562447mm"
   height="62.970833mm"
   viewBox="0 0 55.562447 62.970833"
   version="1.1"
   id="svg8"
   inkscape:version="0.92.4 (5da689c313, 2019-01-14)"
   sodipodi:docname="SnappyLogo.svg">
  <defs
     id="defs2">
    <linearGradient
       y2="223.56197"
       y1="0"
       x2="111.78098"
       x1="111.78098"
       id="snappylabs-horizontal-whitebg-alternative-a"
       gradientTransform="scale(0.93933599,1.0645818)"
       gradientUnits="userSpaceOnUse">
      <stop
         id="stop10"
         stop-color="#FDD944"
         offset="0%" />
      <stop
         id="stop12"
         stop-color="#FA709A"
         offset="100%" />
    </linearGradient>
  </defs>
  <sodipodi:namedview
     id="base"
     pagecolor="#ffffff"
     bordercolor="#666666"
     borderopacity="1.0"
     inkscape:pageopacity="0.0"
     inkscape:pageshadow="2"
     inkscape:zoom="0.35"
     inkscape:cx="-305.28571"
     inkscape:cy="76.142862"
     inkscape:document-units="mm"
     inkscape:current-layer="g25"
     showgrid="false"
     inkscape:window-width="2560"
     inkscape:window-height="1017"
     inkscape:window-x="-8"
     inkscape:window-y="-8"
     inkscape:window-maximized="1" />
  <metadata
     id="metadata5">
    <rdf:RDF>
      <cc:Work
         rdf:about="">
        <dc:format>image/svg+xml</dc:format>
        <dc:type
           rdf:resource="http://purl.org/dc/dcmitype/StillImage" />
        <dc:title></dc:title>
      </cc:Work>
    </rdf:RDF>
  </metadata>
  <g
     inkscape:label="Layer 1"
     inkscape:groupmode="layer"
     id="layer1"
     transform="translate(-73.213988,-106.00863)">
    <g
       id="g25"
       transform="matrix(0.26458333,0,0,0.26458333,-2.9860114,73.65387)"
       style="fill:none;fill-rule:evenodd">
      <g
         id="g21"
         transform="translate(288,122.28572)">
        <path
           id="path17"
           d="m 139.76317,17.982156 -0.004,53.690201 68.54506,141.934733 c 4.08299,8.45456 0.53913,18.61825 -7.91542,22.70124 C 198.08353,237.42172 195.55635,238 192.9961,238 H 17 c -9.3888408,0 -17,-7.61116 -17,-17 0,-2.54065 0.56946401,-5.049 1.666517,-7.34059 L 69.639924,71.672357 V 17.98001 c -0.168925,0.0094 -0.339091,0.01418 -0.510374,0.01418 -4.977836,0 -9.013169,-4.028136 -9.013169,-8.9970952 C 60.116381,4.028137 64.151714,0 69.12955,0 c 0.171283,0 0.341449,0.00476924 0.510374,0.01418194 V 0 H 139.76444 V 0.0119706 C 139.91977,0.00402268 140.07613,0 140.23344,0 c 4.97784,0 9.01317,4.028137 9.01317,8.9970958 0,4.9689592 -4.03533,8.9970952 -9.01317,8.9970952 -0.15774,0 -0.31453,-0.004 -0.47027,-0.01204 z"
           inkscape:connector-curvature="0"
           style="fill:url(#snappylabs-horizontal-whitebg-alternative-a)" />
        <path
           id="path19"
           d="m 105,181.99951 c -0.0783,3.2e-4 -0.15675,4.9e-4 -0.23534,4.9e-4 l -2e-5,-0.002 c -23.683404,-0.19942 -34.156532,-15.4489 -35.552477,-28.19161 -1.067608,-7.0981 1.996337,-10.95973 6.888357,-11.68383 4.892019,-0.72411 8.814042,1.76417 9.46259,7.36589 0.759153,8.80524 6.907109,16.73834 19.43689,16.8886 12.52978,-0.15026 18.67774,-8.08336 19.43689,-16.8886 0.64855,-5.60172 4.57057,-8.09 9.46259,-7.36589 4.89202,0.7241 7.95596,4.58573 6.88836,11.68383 -1.39595,12.74271 -11.86908,27.99219 -35.55248,28.19163 l -2e-5,0.002 c -0.0786,0 -0.15703,-1.7e-4 -0.23533,-4.9e-4 z"
           inkscape:connector-curvature="0"
           style="fill:#ffffff" />
      </g>
    </g>
  </g>
</svg>
